<?xml version="1.0" encoding="utf-8"?>
<!-- Generator: Adobe Illustrator 24.0.2, SVG Export Plug-In . SVG Version: 6.00 Build 0)  -->
<svg version="1.1" id="Layer_1" xmlns="http://www.w3.org/2000/svg" xmlns:xlink="http://www.w3.org/1999/xlink" x="0px" y="0px"
	 viewBox="0 0 512 512" style="enable-background:new 0 0 512 512;" xml:space="preserve">
<style type="text/css">
	.st0{fill:#C5E9F9;}
	.st1{fill:#5E889E;}
</style>
<circle class="st0" cx="256.3281" cy="255.9678" r="248.873"/>
<path class="st1" d="M256.0941,188.617c-44.3977,0-80.5134,36.1175-80.5134,80.5116s36.1157,80.5134,80.5134,80.5134
	c44.3923,0,80.5081-36.1193,80.5081-80.5134C336.6022,224.7345,300.4865,188.617,256.0941,188.617z M256.0941,331.7488
	c-34.5896,0-62.6237-28.0359-62.6237-62.6219c0-34.5842,28.0359-62.6201,62.6237-62.6201c34.5806,0,62.6166,28.0359,62.6166,62.6201
	C318.7107,303.7129,290.6748,331.7488,256.0941,331.7488z M395.6422,151.9395H116.5406c-12.338,0-22.3697,10.0335-22.3697,22.3643
	v23.2589h23.2589c3.2079,0,6.4105,1.222,8.8599,3.6695c2.444,2.4404,3.666,5.6501,3.666,8.8527v118.0837
	c0,3.2043-1.222,6.4141-3.666,8.8545c-2.4475,2.444-5.6501,3.6695-8.8599,3.6695H94.1709v23.2589
	c0,12.329,10.03,22.3661,22.3697,22.3661h279.1016c12.3344,0,22.3661-10.0371,22.3661-22.3661V174.302
	C418.0084,161.9731,407.9766,151.9395,395.6422,151.9395z M256.0941,358.586c-49.4091,0-89.4627-40.0518-89.4627-89.4592
	c0-49.4055,40.0536-89.4574,89.4627-89.4574c49.4019,0,89.452,40.0536,89.452,89.4574
	C345.5461,318.5342,305.4961,358.586,256.0941,358.586z M379.3735,201.4774c-6.0223,0-10.903-4.8826-10.903-10.9031
	c0-6.0187,4.8808-10.9048,10.903-10.9048c6.0169,0,10.903,4.8862,10.903,10.9048
	C390.2766,196.593,385.3922,201.4774,379.3735,201.4774z M395.6422,134.9426h-21.7668v-8.0512c0-1.3741-0.5242-2.7481-1.5727-3.7966
	c-1.0449-1.0484-2.4225-1.5727-3.7966-1.5727h-25.048c-1.3741,0-2.7464,0.5242-3.7966,1.5727
	c-1.0413,1.0484-1.5691,2.4225-1.5691,3.7966v8.0512h-27.8839l-14.1754-21.2587c-1.1003-1.6639-2.6175-3.0863-4.5105-4.0972
	c-1.8822-1.0073-3.9111-1.4814-5.906-1.4814h-58.158c-2.0021,0-4.0256,0.4741-5.9095,1.4814
	c-1.8858,1.0109-3.4012,2.4314-4.5158,4.0972l-14.1718,21.2587H174.085v-8.0512c0-1.3741-0.5224-2.7481-1.5691-3.7966
	c-1.052-1.0484-2.4189-1.5727-3.7966-1.5727h-25.048c-1.3705,0-2.7446,0.5242-3.7966,1.5727
	c-1.0449,1.0484-1.5691,2.4225-1.5691,3.7966v8.0512h-21.765c-21.6558,0-39.3666,17.7108-39.3666,39.3612v189.6496
	c0,21.6505,17.7108,39.3612,39.3666,39.3612h279.1016c21.6541,0,39.3613-17.7108,39.3613-39.3612V174.3038
	C435.0035,152.6534,417.2963,134.9426,395.6422,134.9426z M422.4813,363.9535c0,14.798-12.0392,26.8354-26.839,26.8354H116.5406
	c-14.8016,0-26.8408-12.0374-26.8408-26.8354V174.3038c0-14.7962,12.0392-26.8354,26.8408-26.8354h279.1016
	c14.798,0,26.839,12.0392,26.839,26.8354V363.9535z"/>
</svg>
